<?xml version="1.0" encoding="utf-8"?>
<!-- Generator: Adobe Illustrator 23.0.0, SVG Export Plug-In . SVG Version: 6.00 Build 0)  -->
<svg version="1.1" id="artwork" xmlns="http://www.w3.org/2000/svg" xmlns:xlink="http://www.w3.org/1999/xlink" x="0px" y="0px"
	 viewBox="0 0 155 60" style="enable-background:new 0 0 155 60;" xml:space="preserve">
<style type="text/css">
	.st0{fill:#76B03A;}
	.st1{fill:#FFFFFF;}
	.st2{font-family:'Roboto-Regular';}
	.st3{font-size:15.2435px;}
</style>
<path class="st0" d="M130.9,7.5H24.1C11.7,7.5,1.6,17.6,1.6,30v0c0,12.4,10.1,22.5,22.5,22.5h106.8c12.4,0,22.5-10.1,22.5-22.5v0
	C153.4,17.6,143.3,7.5,130.9,7.5z"/>
<g>
	<path class="st1" d="M26.3,20.6l0.3-0.3l0.3-0.3l0.5-0.8c0.1-0.1,0-0.3-0.1-0.3s-0.3,0-0.3,0.1l-0.5,0.8L26.1,20l-0.3,0.3
		c-0.8-0.3-1.6-0.5-2.6-0.5s-1.8,0.2-2.6,0.5L20.4,20l-0.2-0.3l-0.6-0.9c-0.1-0.1-0.2-0.1-0.3,0c-0.1,0.1-0.1,0.2-0.1,0.3l0.5,0.8
		l0.3,0.3l0.3,0.3c-1.8,0.9-3.1,2.5-3.1,4.4h12.3C29.4,23.1,28.2,21.5,26.3,20.6z M20.7,23.2c-0.3,0-0.7-0.3-0.7-0.7
		s0.3-0.7,0.7-0.7c0.3,0,0.7,0.3,0.7,0.7C21.4,22.9,21,23.2,20.7,23.2z M25.9,23.2c-0.3,0-0.7-0.3-0.7-0.7s0.3-0.7,0.7-0.7
		c0.3,0,0.7,0.3,0.7,0.7S26.3,23.2,25.9,23.2z"/>
	<path class="st1" d="M17.3,25.9L17.3,25.9L17.2,27v0.9v7.6c0,0.8,0.6,1.4,1.4,1.4h1c0,0.1-0.1,0.3-0.1,0.3v0.1v0.4V40
		c0,0.7,0.6,1.3,1.3,1.3c0.7,0,1.3-0.6,1.3-1.3v-2.2v-0.4v-0.1c0-0.1,0-0.3-0.1-0.3h2.4c0,0.1-0.1,0.3-0.1,0.3v0.1v0.4V40
		c0,0.7,0.6,1.3,1.3,1.3S27,40.7,27,40v-2.2v-0.4v-0.1c0-0.1,0-0.3-0.1-0.3h1c0.8,0,1.4-0.6,1.4-1.4v-7.6V27v-1.1h-0.1
		C29.3,25.9,17.3,25.9,17.3,25.9z"/>
	<path class="st1" d="M15,25.9c-0.7,0-1.3,0.6-1.3,1.3v5.6c0,0.7,0.6,1.3,1.3,1.3c0.7,0,1.3-0.6,1.3-1.3v-5.6
		C16.3,26.4,15.7,25.9,15,25.9z"/>
	<path class="st1" d="M31.7,25.9c-0.7,0-1.3,0.6-1.3,1.3v5.6c0,0.7,0.6,1.3,1.3,1.3s1.3-0.6,1.3-1.3v-5.6
		C33,26.4,32.3,25.9,31.7,25.9z"/>
</g>
<text transform="matrix(1 0 0 1 41.4258 35.1924)" class="st1 st2 st3">Download APK</text>
</svg>
