<?xml version="1.0" encoding="utf-8"?>
<!-- Generator: Adobe Illustrator 23.0.0, SVG Export Plug-In . SVG Version: 6.00 Build 0)  -->
<svg version="1.1" id="artwork" xmlns="http://www.w3.org/2000/svg" xmlns:xlink="http://www.w3.org/1999/xlink" x="0px" y="0px"
	 viewBox="0 0 155 60" style="enable-background:new 0 0 155 60;" xml:space="preserve">
<style type="text/css">
	.st0{fill:#FFFFFF;}
</style>
<path d="M131.4,7.3H24.6C12.2,7.3,2.1,17.4,2.1,29.8v0c0,12.4,10.1,22.5,22.5,22.5h106.8c12.4,0,22.5-10.1,22.5-22.5v0
	C153.9,17.4,143.8,7.3,131.4,7.3z"/>
<path class="st0" d="M40.8,28.7c0-3.2,2.6-4.8,2.7-4.8c-1.5-2.2-3.8-2.5-4.7-2.5c-2-0.2-3.9,1.2-4.9,1.2c-1,0-2.6-1.1-4.2-1.1
	c-2.1,0-4.1,1.3-5.2,3.2c-2.3,3.9-0.6,9.6,1.6,12.8c1.1,1.5,2.3,3.3,4,3.2c1.6-0.1,2.2-1,4.2-1c1.9,0,2.5,1,4.2,1
	c1.7,0,2.8-1.6,3.9-3.1c1.2-1.8,1.7-3.5,1.8-3.6C44.2,33.9,40.9,32.6,40.8,28.7 M37.6,19.3c0.9-1.1,1.5-2.6,1.3-4.1
	c-1.3,0.1-2.8,0.9-3.7,1.9c-0.8,0.9-1.5,2.5-1.3,3.9C35.3,21.2,36.7,20.4,37.6,19.3 M64.2,40.4H62l-1.2-3.9h-4.3l-1.2,3.9h-2.2
	l4.3-13.2H60L64.2,40.4z M60.4,34.9l-1.1-3.5c-0.1-0.4-0.3-1.2-0.7-2.5h0c-0.1,0.6-0.3,1.4-0.6,2.5l-1.1,3.5H60.4z M75.2,35.5
	c0,1.6-0.4,2.9-1.3,3.8c-0.8,0.8-1.8,1.3-2.9,1.3c-1.3,0-2.2-0.4-2.7-1.4v5h-2.1V34c0-1,0-2.1-0.1-3.1h1.9l0.1,1.5h0
	c0.7-1.1,1.8-1.7,3.2-1.7c1.1,0,2.1,0.4,2.8,1.3C74.8,32.9,75.2,34.1,75.2,35.5L75.2,35.5z M73,35.6c0-0.9-0.2-1.7-0.6-2.3
	c-0.5-0.6-1.1-0.9-1.8-0.9c-0.5,0-1,0.2-1.4,0.5c-0.4,0.3-0.7,0.8-0.8,1.4c-0.1,0.3-0.1,0.5-0.1,0.6v1.6c0,0.7,0.2,1.3,0.6,1.8
	s1,0.7,1.7,0.7c0.8,0,1.4-0.3,1.9-0.9C72.8,37.4,73,36.6,73,35.6z M86.2,35.5c0,1.6-0.4,2.9-1.3,3.8c-0.8,0.8-1.8,1.3-2.9,1.3
	c-1.3,0-2.2-0.4-2.7-1.4v5h-2.1V34c0-1,0-2.1-0.1-3.1h1.9l0.1,1.5h0c0.7-1.1,1.8-1.7,3.2-1.7c1.1,0,2.1,0.4,2.8,1.3
	C85.8,32.9,86.2,34.1,86.2,35.5L86.2,35.5z M84,35.6c0-0.9-0.2-1.7-0.6-2.3c-0.5-0.6-1.1-0.9-1.8-0.9c-0.5,0-1,0.2-1.4,0.5
	c-0.4,0.3-0.7,0.8-0.8,1.4c-0.1,0.3-0.1,0.5-0.1,0.6v1.6c0,0.7,0.2,1.3,0.6,1.8s1,0.7,1.7,0.7c0.8,0,1.4-0.3,1.9-0.9
	C83.8,37.4,84,36.6,84,35.6z M98.5,36.7c0,1.1-0.4,2-1.2,2.8c-0.9,0.8-2.1,1.2-3.6,1.2c-1.4,0-2.6-0.3-3.4-0.8l0.5-1.8
	c0.9,0.5,2,0.8,3.1,0.8c0.8,0,1.4-0.2,1.9-0.5c0.4-0.4,0.7-0.8,0.7-1.4c0-0.5-0.2-1-0.5-1.4c-0.4-0.4-1-0.7-1.8-1
	c-2.3-0.9-3.5-2.1-3.5-3.8c0-1.1,0.4-2,1.2-2.7c0.8-0.7,1.9-1,3.3-1c1.2,0,2.2,0.2,3,0.6l-0.5,1.7c-0.8-0.4-1.6-0.6-2.5-0.6
	c-0.7,0-1.3,0.2-1.8,0.5c-0.3,0.3-0.5,0.7-0.5,1.2c0,0.5,0.2,1,0.6,1.3c0.3,0.3,1,0.7,1.9,1c1.1,0.5,2,1,2.5,1.6
	C98.2,35,98.5,35.8,98.5,36.7 M105.5,32.4h-2.3v4.6c0,1.2,0.4,1.8,1.2,1.8c0.4,0,0.7,0,0.9-0.1l0.1,1.6c-0.4,0.2-1,0.2-1.7,0.2
	c-0.8,0-1.5-0.3-2-0.8s-0.7-1.4-0.7-2.6v-4.8h-1.4v-1.6h1.4v-1.7l2.1-0.6v2.4h2.3V32.4z M116,35.6c0,1.5-0.4,2.7-1.3,3.6
	c-0.9,1-2,1.5-3.5,1.5c-1.4,0-2.5-0.5-3.4-1.4c-0.8-0.9-1.2-2.1-1.2-3.5c0-1.5,0.4-2.7,1.3-3.6c0.9-0.9,2-1.4,3.5-1.4
	c1.4,0,2.5,0.5,3.4,1.4C115.6,33,116,34.1,116,35.6L116,35.6z M113.8,35.6c0-0.9-0.2-1.6-0.6-2.3c-0.4-0.8-1.1-1.1-1.9-1.1
	c-0.9,0-1.5,0.4-1.9,1.1c-0.4,0.6-0.6,1.4-0.6,2.3c0,0.9,0.2,1.6,0.6,2.3c0.5,0.8,1.1,1.1,1.9,1.1c0.8,0,1.4-0.4,1.9-1.2
	C113.6,37.2,113.8,36.5,113.8,35.6L113.8,35.6z M122.9,32.7c-0.2,0-0.4-0.1-0.7-0.1c-0.7,0-1.3,0.3-1.7,0.8
	c-0.3,0.5-0.5,1.1-0.5,1.9v5h-2.1v-6.5c0-1.1,0-2.1-0.1-3h1.8l0.1,1.8h0.1c0.2-0.6,0.6-1.1,1.1-1.5c0.5-0.3,1-0.5,1.5-0.5
	c0.2,0,0.4,0,0.5,0L122.9,32.7z M132.4,35.2c0,0.4,0,0.7-0.1,1H126c0,0.9,0.3,1.7,0.9,2.2c0.5,0.4,1.2,0.7,2.1,0.7
	c0.9,0,1.8-0.2,2.6-0.4l0.3,1.5c-0.9,0.4-2,0.6-3.2,0.6c-1.5,0-2.6-0.4-3.5-1.3s-1.3-2-1.3-3.5c0-1.4,0.4-2.6,1.2-3.6
	c0.8-1,1.9-1.5,3.3-1.5c1.4,0,2.4,0.5,3.1,1.5C132.1,33,132.4,34,132.4,35.2L132.4,35.2z M130.4,34.6c0-0.6-0.1-1.2-0.4-1.6
	c-0.4-0.6-0.9-0.9-1.7-0.9c-0.7,0-1.3,0.3-1.7,0.9c-0.3,0.5-0.6,1-0.6,1.7L130.4,34.6z"/>
<path class="st0" d="M59.4,22.4h-1.1l-0.6-1.9h-2.1l-0.6,1.9h-1.1l2.1-6.5h1.3L59.4,22.4z M57.4,19.7L56.9,18
	c-0.1-0.2-0.2-0.6-0.3-1.2h0c-0.1,0.3-0.2,0.7-0.3,1.2l-0.5,1.7H57.4z M64.6,17.7l-1.8,4.7h-1l-1.7-4.7h1.1l0.8,2.5
	c0.1,0.4,0.3,0.8,0.3,1.2h0c0.1-0.3,0.2-0.7,0.3-1.2l0.8-2.5H64.6z M68.4,22.4l-0.1-0.5h0c-0.3,0.4-0.8,0.6-1.4,0.6
	c-0.8,0-1.4-0.6-1.4-1.4c0-1.2,1-1.8,2.7-1.8v-0.1c0-0.6-0.3-0.9-1-0.9c-0.5,0-0.9,0.1-1.2,0.3L65.8,18c0.4-0.3,1-0.4,1.6-0.4
	c1.2,0,1.8,0.6,1.8,1.9v1.7c0,0.5,0,0.8,0.1,1.1L68.4,22.4z M68.2,20.1c-1.2,0-1.7,0.3-1.7,1c0,0.5,0.3,0.7,0.7,0.7c0.5,0,1-0.4,1-1
	V20.1z M71.6,16.9c-0.3,0-0.6-0.3-0.6-0.6c0-0.4,0.3-0.6,0.6-0.6s0.6,0.3,0.6,0.6C72.2,16.7,72,16.9,71.6,16.9L71.6,16.9z
	 M71.1,17.7h1v4.7h-1V17.7z M74,15.6h1v6.8h-1V15.6z M79.4,22.4l-0.1-0.5h0c-0.3,0.4-0.8,0.6-1.4,0.6c-0.8,0-1.4-0.6-1.4-1.4
	c0-1.2,1-1.8,2.7-1.8v-0.1c0-0.6-0.3-0.9-1-0.9c-0.5,0-0.9,0.1-1.2,0.3L76.9,18c0.4-0.3,1-0.4,1.6-0.4c1.2,0,1.8,0.6,1.8,1.9v1.7
	c0,0.5,0,0.8,0.1,1.1L79.4,22.4L79.4,22.4z M79.3,20.1c-1.2,0-1.7,0.3-1.7,1c0,0.5,0.3,0.7,0.7,0.7c0.5,0,1-0.4,1-1V20.1z
	 M84.5,22.5c-0.7,0-1.2-0.3-1.5-0.8h0L83,22.4h-0.9c0-0.4,0-0.8,0-1.3v-5.6h1v2.8h0c0.3-0.5,0.8-0.8,1.5-0.8c1.1,0,1.9,1,1.9,2.4
	C86.6,21.5,85.7,22.5,84.5,22.5L84.5,22.5z M84.3,18.4c-0.6,0-1.1,0.5-1.1,1.2v0.8c0,0.6,0.5,1.2,1.1,1.2c0.8,0,1.2-0.6,1.2-1.7
	C85.6,19.1,85.1,18.4,84.3,18.4z M88.2,15.6h1v6.8h-1V15.6z M94.9,20.3h-3.1c0,0.9,0.6,1.4,1.5,1.4c0.5,0,0.9-0.1,1.3-0.2l0.2,0.7
	c-0.4,0.2-1,0.3-1.6,0.3c-1.5,0-2.3-0.9-2.3-2.4c0-1.4,0.9-2.5,2.2-2.5c1.2,0,2,0.9,2,2.2C94.9,20,94.9,20.2,94.9,20.3L94.9,20.3z
	 M93.9,19.6c0-0.7-0.4-1.2-1-1.2c-0.6,0-1.1,0.5-1.1,1.2H93.9z M101.2,22.5c-1.4,0-2.3-1-2.3-2.4c0-1.5,0.9-2.5,2.3-2.5
	c1.4,0,2.3,1,2.3,2.4C103.5,21.5,102.6,22.5,101.2,22.5L101.2,22.5z M101.3,18.4c-0.8,0-1.2,0.7-1.2,1.7c0,1,0.5,1.7,1.2,1.7
	s1.2-0.8,1.2-1.7C102.5,19.1,102,18.4,101.3,18.4L101.3,18.4z M109.2,22.4h-1v-2.7c0-0.8-0.3-1.2-1-1.2c-0.6,0-1,0.5-1,1.1v2.8h-1
	v-3.3c0-0.4,0-0.9,0-1.3h0.9l0,0.7h0c0.3-0.5,0.9-0.8,1.5-0.8c1,0,1.6,0.8,1.6,2V22.4z M116,18.5h-1.1v2.3c0,0.6,0.2,0.9,0.6,0.9
	c0.2,0,0.3,0,0.5,0l0,0.8c-0.2,0.1-0.5,0.1-0.8,0.1c-0.8,0-1.3-0.5-1.3-1.6v-2.4h-0.7v-0.8h0.7v-0.9l1-0.3v1.2h1.1L116,18.5
	 M121.5,22.4h-1v-2.7c0-0.8-0.3-1.3-1-1.3c-0.5,0-1,0.4-1,1.1v2.8h-1v-6.8h1v2.8h0c0.3-0.5,0.8-0.8,1.4-0.8c1,0,1.6,0.8,1.6,2V22.4z
	 M126.8,20.3h-3.1c0,0.9,0.6,1.4,1.5,1.4c0.5,0,0.9-0.1,1.3-0.2l0.2,0.7c-0.4,0.2-1,0.3-1.6,0.3c-1.5,0-2.3-0.9-2.3-2.4
	c0-1.4,0.9-2.5,2.2-2.5c1.2,0,2,0.9,2,2.2C126.9,20,126.9,20.2,126.8,20.3L126.8,20.3z M125.9,19.6c0-0.7-0.4-1.2-1-1.2
	c-0.6,0-1.1,0.5-1.1,1.2H125.9z"/>
</svg>
