<?xml version="1.0" encoding="utf-8"?>
<!-- Generator: Adobe Illustrator 23.0.0, SVG Export Plug-In . SVG Version: 6.00 Build 0)  -->
<svg version="1.1" id="artwork" xmlns="http://www.w3.org/2000/svg" xmlns:xlink="http://www.w3.org/1999/xlink" x="0px" y="0px"
	 viewBox="0 0 155 60" style="enable-background:new 0 0 155 60;" xml:space="preserve">
<style type="text/css">
	.st0{fill:#4E89FF;}
	.st1{fill:#FFFFFF;}
	.st2{font-family:'Roboto-Regular';}
	.st3{font-size:14px;}
</style>
<path class="st0" d="M131.4,6.9H24.6C12.2,6.9,2.1,17,2.1,29.3v0c0,12.4,10.1,22.5,22.5,22.5h106.8c12.4,0,22.5-10.1,22.5-22.5v0
	C153.9,17,143.8,6.9,131.4,6.9z"/>
<path class="st1" d="M40.8,30.2c0-3.2,2.6-4.8,2.7-4.8c-1.5-2.2-3.8-2.5-4.7-2.5C36.9,22.6,35,24,34,24c-1,0-2.6-1.2-4.2-1.1
	c-2.1,0-4.1,1.3-5.2,3.2c-2.3,3.9-0.6,9.6,1.6,12.8c1.1,1.5,2.3,3.3,4,3.2c1.6-0.1,2.2-1,4.2-1c1.9,0,2.5,1,4.2,1
	c1.7,0,2.8-1.6,3.9-3.1c1.2-1.8,1.8-3.5,1.8-3.6C44.1,35.3,40.8,34,40.8,30.2L40.8,30.2z M37.6,20.7c0.9-1.1,1.5-2.6,1.3-4.1
	c-1.3,0.1-2.8,0.9-3.7,1.9c-0.8,0.9-1.5,2.5-1.3,3.9C35.2,22.6,36.7,21.8,37.6,20.7L37.6,20.7z"/>
<text transform="matrix(1 0 0 1 55.0398 34.4374)" class="st1 st2 st3">Download</text>
</svg>
