<?xml version="1.0" encoding="utf-8"?>
<!-- Generator: Adobe Illustrator 23.0.0, SVG Export Plug-In . SVG Version: 6.00 Build 0)  -->
<svg version="1.1" id="artwork" xmlns="http://www.w3.org/2000/svg" xmlns:xlink="http://www.w3.org/1999/xlink" x="0px" y="0px"
	 viewBox="0 0 155 60" style="enable-background:new 0 0 155 60;" xml:space="preserve">
<style type="text/css">
	.st0{fill:#FFFFFF;stroke:#FFFFFF;stroke-width:0.2;stroke-miterlimit:10;}
	.st1{fill:#FFFFFF;}
	.st2{fill:url(#SVGID_1_);}
	.st3{fill:url(#SVGID_2_);}
	.st4{fill:url(#SVGID_3_);}
	.st5{fill:url(#SVGID_4_);}
	.st6{opacity:0.2;enable-background:new    ;}
	.st7{opacity:0.12;enable-background:new    ;}
	.st8{opacity:0.25;fill:#FFFFFF;enable-background:new    ;}
</style>
<path d="M131.1,7.8H24.3C11.9,7.8,1.8,17.9,1.8,30.3l0,0c0,12.4,10.1,22.5,22.5,22.5h106.8c12.4,0,22.5-10.1,22.5-22.5l0,0
	C153.6,17.9,143.5,7.8,131.1,7.8z"/>
<g>
	<path class="st0" d="M57.5,20.1c0,0.8-0.3,1.5-0.7,2c-0.5,0.6-1.3,0.9-2.2,0.9s-1.6-0.3-2.2-0.9c-0.6-0.6-0.9-1.3-0.9-2.2
		c0-0.9,0.3-1.6,0.9-2.2c0.6-0.6,1.3-0.9,2.2-0.9c0.4,0,0.8,0.1,1.2,0.3c0.4,0.2,0.7,0.4,1,0.7l-0.5,0.5c-0.4-0.4-1-0.7-1.6-0.7
		s-1.1,0.2-1.6,0.6c-0.6,0.4-0.8,1-0.8,1.7c0,0.7,0.3,1.2,0.7,1.7c0.4,0.4,1,0.6,1.6,0.6c0.7,0,1.2-0.3,1.7-0.7
		c0.3-0.3,0.4-0.7,0.5-1.2h-2.1v-0.7h2.9C57.5,19.9,57.5,20,57.5,20.1z"/>
	<path class="st0" d="M62.1,17.7h-2.7v1.8h2.5v0.7h-2.5v1.8h2.7v0.7h-3.4v-5.9h3.4V17.7z"/>
	<path class="st0" d="M65.3,22.9h-0.8v-5.2h-1.7V17h4v0.7h-1.7L65.3,22.9L65.3,22.9z"/>
	<path class="st0" d="M69.9,22.9V17h0.8v5.9H69.9z"/>
	<path class="st0" d="M74,22.9h-0.8v-5.2h-1.6V17h4v0.7H74V22.9z"/>
	<path class="st0" d="M83.4,22.2c-0.6,0.6-1.3,0.9-2.2,0.9c-0.9,0-1.6-0.3-2.2-0.9c-0.6-0.6-0.9-1.3-0.9-2.2c0-0.9,0.3-1.6,0.9-2.2
		c0.6-0.6,1.3-0.9,2.2-0.9c0.9,0,1.6,0.3,2.2,0.9c0.6,0.6,0.9,1.3,0.9,2.2C84.3,20.8,83.9,21.5,83.4,22.2z M79.6,21.6
		c0.4,0.4,1,0.7,1.6,0.7c0.6,0,1.1-0.3,1.6-0.7c0.4-0.4,0.7-1.1,0.7-1.7c0-0.7-0.3-1.2-0.7-1.7c-0.4-0.4-1-0.7-1.6-0.7
		c-0.6,0-1.1,0.3-1.6,0.7C79.2,18.7,79,19.3,79,20C78.9,20.6,79.2,21.2,79.6,21.6z"/>
	<path class="st0" d="M85.3,22.9V17h1l2.9,4.6l0,0v-1.1V17H90v5.9h-0.8l-3-4.8l0,0v1.1v3.7C86.2,22.9,85.3,22.9,85.3,22.9z"/>
</g>
<path class="st1" d="M78,31.5c-2.3,0-4.2,1.8-4.2,4.2S75.7,40,78,40c2.3,0,4.2-1.8,4.2-4.2S80.3,31.5,78,31.5z M78,38.3
	c-1.2,0-2.4-1.1-2.4-2.5s1.1-2.5,2.4-2.5c1.2,0,2.4,1.1,2.4,2.5C80.3,37.3,79.3,38.3,78,38.3z M68.7,31.5c-2.3,0-4.2,1.8-4.2,4.2
	s1.9,4.2,4.2,4.2c2.3,0,4.2-1.8,4.2-4.2S71.1,31.5,68.7,31.5z M68.7,38.3c-1.2,0-2.4-1.1-2.4-2.5s1.1-2.5,2.4-2.5
	c1.2,0,2.4,1.1,2.4,2.5C71.1,37.3,70.1,38.3,68.7,38.3z M57.9,32.8v1.8h4.3c-0.1,1-0.4,1.8-1,2.3c-0.6,0.6-1.6,1.3-3.2,1.3
	c-2.6,0-4.7-2.1-4.7-4.7c0-2.6,2-4.7,4.7-4.7c1.4,0,2.5,0.5,3.2,1.2l1.2-1.2c-1.1-1.1-2.5-1.8-4.5-1.8c-3.6,0-6.6,2.9-6.6,6.5
	s3,6.5,6.6,6.5c1.9,0,3.4-0.6,4.6-1.8c1.1-1.1,1.6-2.8,1.6-4.1c0-0.4,0-0.8-0.1-1.1H57.9z M102.5,34.2c-0.4-1-1.4-2.6-3.6-2.6
	c-2.2,0-3.9,1.7-3.9,4.2c0,2.4,1.8,4.2,4.1,4.2c1.9,0,3.1-1.1,3.5-1.8l-1.4-1c-0.4,0.7-1.1,1.1-2.1,1.1c-1,0-1.6-0.4-2-1.2l5.6-2.3
	L102.5,34.2z M96.8,35.6c-0.1-1.6,1.2-2.5,2.2-2.5c0.7,0,1.3,0.4,1.6,0.9L96.8,35.6z M92.3,39.6h1.8V27.3h-1.8V39.6z M89.3,32.4
	L89.3,32.4c-0.4-0.5-1.2-1-2.3-1c-2.1,0-4,1.8-4,4.2s1.9,4.2,4,4.2c1,0,1.8-0.4,2.2-1h0.1v0.6c0,1.6-0.9,2.5-2.3,2.5
	c-1.1,0-1.8-0.8-2.1-1.5l-1.6,0.7c0.4,1.1,1.7,2.5,3.7,2.5c2.2,0,3.9-1.2,3.9-4.4v-7.5h-1.8L89.3,32.4L89.3,32.4z M87.2,38.3
	c-1.2,0-2.4-1.1-2.4-2.5s1.1-2.5,2.4-2.5c1.2,0,2.3,1.1,2.3,2.5C89.4,37.2,88.4,38.3,87.2,38.3z M111.2,27.3h-4.4v12.4h1.8v-4.7h2.5
	c2,0,4-1.5,4-3.9S113.2,27.3,111.2,27.3z M111.2,33.3h-2.6v-4.2h2.6c1.4,0,2.2,1.1,2.2,2.1C113.4,32.1,112.6,33.3,111.2,33.3z
	 M122.6,31.5c-1.3,0-2.7,0.6-3.2,1.9l1.7,0.7c0.4-0.7,1-0.9,1.7-0.9c1,0,1.9,0.6,1.9,1.6v0.1c-0.4-0.2-1.1-0.4-1.9-0.4
	c-1.8,0-3.6,1-3.6,2.8c0,1.7,1.4,2.7,3.1,2.7c1.2,0,1.9-0.5,2.4-1.2h0.1v1h1.8V35C126.4,32.7,124.7,31.5,122.6,31.5z M122.4,38.2
	c-0.6,0-1.4-0.3-1.4-1.1c0-1,1.1-1.3,1.9-1.3c0.8,0,1.2,0.2,1.7,0.4C124.5,37.4,123.5,38.2,122.4,38.2z M132.8,31.8l-2.1,5.4h-0.1
	l-2.2-5.4h-2l3.2,7.5l-1.8,4.1h1.9l5.1-11.7L132.8,31.8L132.8,31.8z M116.2,39.6h1.8V27.3h-1.8V39.6z"/>
<g>
	
		<linearGradient id="SVGID_1_" gradientUnits="userSpaceOnUse" x1="32.2603" y1="-153.3361" x2="15.6973" y2="-136.7731" gradientTransform="matrix(1 0 0 1 0 172)">
		<stop  offset="0" style="stop-color:#00A0FF"/>
		<stop  offset="6.574450e-03" style="stop-color:#00A1FF"/>
		<stop  offset="0.2601" style="stop-color:#00BEFF"/>
		<stop  offset="0.5122" style="stop-color:#00D2FF"/>
		<stop  offset="0.7604" style="stop-color:#00DFFF"/>
		<stop  offset="1" style="stop-color:#00E3FF"/>
	</linearGradient>
	<path class="st2" d="M21,17.5c-0.3,0.3-0.4,0.8-0.4,1.4v21.9c0,0.6,0.2,1.1,0.4,1.4l0.1,0.1l12.2-12.2v-0.3v-0.2L21,17.5L21,17.5z"
		/>
	
		<linearGradient id="SVGID_2_" gradientUnits="userSpaceOnUse" x1="44.1233" y1="-142.2077" x2="20.2427" y2="-142.2077" gradientTransform="matrix(1 0 0 1 0 172)">
		<stop  offset="0" style="stop-color:#FFE000"/>
		<stop  offset="0.4087" style="stop-color:#FFBD00"/>
		<stop  offset="0.7754" style="stop-color:#FFA500"/>
		<stop  offset="1" style="stop-color:#FF9C00"/>
	</linearGradient>
	<path class="st3" d="M37.4,34l-4-4v-0.2v-0.2l4-4l0.1,0.1l4.8,2.7c1.4,0.8,1.4,2.1,0,2.8L37.4,34L37.4,34z"/>
	
		<linearGradient id="SVGID_3_" gradientUnits="userSpaceOnUse" x1="35.2344" y1="-139.941" x2="12.7735" y2="-117.4802" gradientTransform="matrix(1 0 0 1 0 172)">
		<stop  offset="0" style="stop-color:#FF3A44"/>
		<stop  offset="1" style="stop-color:#C31162"/>
	</linearGradient>
	<path class="st4" d="M37.5,34l-4.2-4.2L21,42.1c0.4,0.4,1.2,0.5,2,0.1L37.5,34"/>
	
		<linearGradient id="SVGID_4_" gradientUnits="userSpaceOnUse" x1="17.9128" y1="-161.7522" x2="27.9425" y2="-151.7225" gradientTransform="matrix(1 0 0 1 0 172)">
		<stop  offset="0" style="stop-color:#32A071"/>
		<stop  offset="6.850000e-02" style="stop-color:#2DA771"/>
		<stop  offset="0.4762" style="stop-color:#15CF74"/>
		<stop  offset="0.8009" style="stop-color:#06E775"/>
		<stop  offset="1" style="stop-color:#00F076"/>
	</linearGradient>
	<path class="st5" d="M37.5,25.7l-14.4-8.2c-0.9-0.4-1.6-0.4-2,0.1l12.3,12.3L37.5,25.7z"/>
	<g>
		<path class="st6" d="M37.4,33.8L23.1,42c-0.8,0.4-1.5,0.4-2,0l0,0L21,42.1l0,0l0.1,0.1l0,0c0.4,0.4,1.1,0.4,2,0L37.5,34L37.4,33.8
			z"/>
		<path class="st7" d="M21,42c-0.3-0.3-0.4-0.8-0.4-1.4v0.2c0,0.6,0.2,1.1,0.4,1.4V42L21,42z"/>
	</g>
	<path class="st7" d="M42.3,31.1l-4.9,2.7l0.1,0.1L42.3,31.1c0.7-0.3,1.1-0.8,1.1-1.3l0,0C43.3,30.2,42.9,30.8,42.3,31.1z"/>
	<path class="st8" d="M23.1,17.6l19.2,11c0.6,0.4,1,0.8,1.1,1.3l0,0c0-0.5-0.4-1.1-1.1-1.4L23.1,17.4c-1.4-0.8-2.5-0.2-2.5,1.4V19
		C20.6,17.4,21.7,16.8,23.1,17.6z"/>
</g>
</svg>
